<svg width="313" height="250" viewBox="0 0 313 250" fill="none" xmlns="http://www.w3.org/2000/svg">
<path opacity="0.05" d="M2.06346e-07 247.64L6.73111 208.068C27.4856 208.919 42.0699 205.303 50.4838 197.218C58.8978 189.559 63.9462 179.135 65.629 165.944C66.7509 153.179 66.7509 139.351 65.629 124.458L1.09752e-05 124.458L2.18557e-05 -2.73633e-05L122.003 -1.66975e-05L122.003 156.37C122.003 189.985 110.504 215.089 87.5053 231.683C64.5071 248.278 35.3387 253.597 2.06346e-07 247.64ZM190.997 247.64L197.728 208.068C218.483 208.919 233.067 205.303 241.481 197.218C249.895 189.559 254.944 179.135 256.626 165.944C257.748 153.179 257.748 139.351 256.626 124.458L190.997 124.458L190.997 -1.06658e-05L313 0L313 156.37C313 189.985 301.501 215.089 278.503 231.684C255.504 248.278 226.336 253.597 190.997 247.64Z" fill="black"/>
</svg>
