<svg width="188" height="61" viewBox="0 0 188 61" fill="none" xmlns="http://www.w3.org/2000/svg">
<path d="M94.0253 14.9955C91.9216 13.4843 89.3311 12.7302 86.254 12.7302H76.3789V48.0777H79.6716V37.7983C79.6716 35.5421 81.5167 33.7104 83.796 33.7104H86.2571C89.3342 33.7104 91.9277 32.9624 94.0284 31.4664C96.1291 29.9704 97.1825 27.3815 97.1825 23.6935V22.7868C97.1825 19.1018 96.1322 16.5037 94.0284 14.9925L94.0253 14.9955ZM93.7974 23.5592C93.7974 26.2794 93.0489 28.16 91.5581 29.2011C90.0642 30.2422 88.327 30.7642 86.3464 30.7642H83.7929C81.5167 30.7642 79.6685 28.9355 79.6685 26.6763V15.6733H86.3433C88.3239 15.6733 90.0611 16.1954 91.555 17.2364C93.0489 18.2775 93.7943 20.1581 93.7943 22.8784V23.5592H93.7974Z" fill="#262626"/>
<path d="M120.265 12.7303L111.302 24.8019C109.577 27.1221 105.865 25.9162 105.865 23.0311V12.7273H102.572V48.0748H105.865V37.2L110.621 30.5384L120.542 48.0748H124.291L112.725 27.5923L124.291 12.7273H120.268L120.265 12.7303Z" fill="#262626"/>
<path d="M144.226 42.46L133.849 12.733H129.231V48.0805H132.524V26.2822L132.496 25.0213C132.469 23.8367 134.141 23.5406 134.532 24.658L142.723 48.0805H145.695L153.925 24.542C154.317 23.4276 155.983 23.7207 155.961 24.8992L155.937 26.2822V48.0805H159.229V12.73H154.612L144.232 42.4569L144.226 42.46Z" fill="#262626"/>
<path d="M187.659 12.73H183.636L175.47 23.7299C173.493 26.3921 169.236 25.006 169.236 21.6997V12.73H165.943V48.0775H169.236V37.2027L173.992 30.5411L183.913 48.0775H187.662L176.096 27.595L187.662 12.73H187.659Z" fill="#262626"/>
<path d="M30.3271 0C47.0766 0 60.6552 13.4581 60.6553 30.0596C60.6553 46.6611 47.0766 60.1191 30.3271 60.1191C13.5779 60.1189 0 46.6609 0 30.0596C7.79991e-05 13.4583 13.5779 0.000228873 30.3271 0ZM28.4238 22.4482C28.4238 25.608 25.8391 28.166 22.6543 28.166H12.8994V47.333H32.2363V37.6641C32.2364 34.5043 34.821 31.9463 38.0059 31.9463H47.7607V12.7793H28.4238V22.4482Z" fill="#AC0900"/>
</svg>
